<?xml version="1.0" encoding="UTF-8" standalone="no"?>
<!-- Created with Inkscape (http://www.inkscape.org/) -->

<svg
   xmlns:dc="http://purl.org/dc/elements/1.1/"
   xmlns:cc="http://creativecommons.org/ns#"
   xmlns:rdf="http://www.w3.org/1999/02/22-rdf-syntax-ns#"
   xmlns:svg="http://www.w3.org/2000/svg"
   xmlns="http://www.w3.org/2000/svg"
   xmlns:sodipodi="http://sodipodi.sourceforge.net/DTD/sodipodi-0.dtd"
   xmlns:inkscape="http://www.inkscape.org/namespaces/inkscape"
   width="530.35901"
   height="404.72968"
   id="svg2"
   version="1.1"
   inkscape:version="0.48.4 r9939"
   sodipodi:docname="interpreter.svg">
  <defs
     id="defs4" />
  <sodipodi:namedview
     id="base"
     pagecolor="#ffffff"
     bordercolor="#666666"
     borderopacity="1.0"
     inkscape:pageopacity="0.0"
     inkscape:pageshadow="2"
     inkscape:zoom="0.49497475"
     inkscape:cx="472.80467"
     inkscape:cy="167.05407"
     inkscape:document-units="px"
     inkscape:current-layer="layer1"
     showgrid="false"
     inkscape:window-width="1920"
     inkscape:window-height="1003"
     inkscape:window-x="-9"
     inkscape:window-y="-9"
     inkscape:window-maximized="1"
     fit-margin-top="0"
     fit-margin-left="0"
     fit-margin-right="0"
     fit-margin-bottom="0" />
  <metadata
     id="metadata7">
    <rdf:RDF>
      <cc:Work
         rdf:about="">
        <dc:format>image/svg+xml</dc:format>
        <dc:type
           rdf:resource="http://purl.org/dc/dcmitype/StillImage" />
        <dc:title></dc:title>
      </cc:Work>
    </rdf:RDF>
  </metadata>
  <g
     inkscape:label="Layer 1"
     inkscape:groupmode="layer"
     id="layer1"
     transform="translate(-82.602909,-197.70783)">
    <rect
       style="fill:#ffffff;fill-opacity:1;stroke:#000000;stroke-width:5;stroke-linecap:butt;stroke-linejoin:miter;stroke-miterlimit:4;stroke-dasharray:none"
       id="rect3044"
       width="76.771591"
       height="58.588848"
       x="417.19302"
       y="421.01685"
       ry="0" />
    <path
       style="fill:#ffffff;fill-opacity:1;stroke:#000000;stroke-width:5;stroke-linecap:butt;stroke-linejoin:miter;stroke-miterlimit:4"
       d="M 359.28125,200.21875 C 278.56156,199.23218 213.5625,265.21179 213.5625,345.9375 l 0,254 291.4375,0 0,-40.15625 c -4.08195,0.34019 -8.24259,0.40131 -12.5,0.15625 -37.09522,-2.13526 -65.42551,-26.611 -63.25,-54.65625 2.17551,-28.04525 34.02978,-49.04151 71.125,-46.90625 1.56394,0.09 3.09392,0.23825 4.625,0.40625 l 0,-34.27621 35,-11.42468 C 606.92087,391.23608 494.57529,201.87234 359.28125,200.21875 z"
       id="rect2987"
       inkscape:connector-curvature="0"
       sodipodi:nodetypes="sscccsssccss" />
    <path
       style="fill:#ffffff;fill-opacity:1;stroke:#000000;stroke-width:4.92663527;stroke-linecap:butt;stroke-linejoin:miter;stroke-miterlimit:4"
       d="m 233.09103,433.71395 c -3.66004,2.45184 -7.66347,4.45724 -11.97725,5.93583 -30.33534,10.39773 -64.53096,-9.19282 -76.37807,-43.7567 -11.8471,-34.56388 3.14056,-71.01248 33.47588,-81.41022 25.04808,-8.58547 52.72805,3.2748 68.28546,27.12799"
       id="path2990"
       inkscape:connector-curvature="0" />
    <path
       sodipodi:type="arc"
       style="fill:#000000;fill-opacity:1;stroke:#000000;stroke-width:5;stroke-linecap:butt;stroke-linejoin:miter;stroke-miterlimit:4;stroke-dasharray:none"
       id="path3020"
       sodipodi:cx="358.21429"
       sodipodi:cy="327.00504"
       sodipodi:rx="21.785715"
       sodipodi:ry="21.785715"
       d="m 380.00001,327.00504 c 0,12.03191 -9.7538,21.78571 -21.78572,21.78571 -12.03191,0 -21.78571,-9.7538 -21.78571,-21.78571 0,-12.03192 9.7538,-21.78572 21.78571,-21.78572 12.03192,0 21.78572,9.7538 21.78572,21.78572 z" />
    <path
       transform="translate(80.662816,-24.291552)"
       sodipodi:type="arc"
       style="fill:#000000;fill-opacity:1;stroke:#000000;stroke-width:5;stroke-linecap:butt;stroke-linejoin:miter;stroke-miterlimit:4;stroke-dasharray:none"
       id="path3020-7"
       sodipodi:cx="358.21429"
       sodipodi:cy="327.00504"
       sodipodi:rx="21.785715"
       sodipodi:ry="21.785715"
       d="m 380.00001,327.00504 c 0,12.03191 -9.7538,21.78571 -21.78572,21.78571 -12.03191,0 -21.78571,-9.7538 -21.78571,-21.78571 0,-12.03192 9.7538,-21.78572 21.78571,-21.78572 12.03192,0 21.78572,9.7538 21.78572,21.78572 z" />
    <g
       style="font-size:40px;font-style:normal;font-weight:normal;line-height:125%;letter-spacing:0px;word-spacing:0px;fill:#000000;fill-opacity:1;stroke:none;font-family:Sans"
       id="text3040"
       transform="matrix(3.8666985,1.8149604,-1.8149604,3.8666985,1128.0257,-2388.8604)">
      <path
         d="m 184.29396,680.62604 -6.28906,0 -2.5,-6.50391 -11.44531,0 -2.36329,6.50391 -6.13281,0 11.15235,-28.63281 6.11328,0 z m -10.64453,-11.32813 -3.94531,-10.625 -3.86719,10.625 z"
         style="font-weight:bold;-inkscape-font-specification:Sans Bold"
         id="path3047"
         inkscape:connector-curvature="0" />
    </g>
    <g
       style="font-size:98.98918152px;font-style:normal;font-weight:normal;line-height:125%;letter-spacing:0px;word-spacing:0px;fill:#000000;fill-opacity:1;stroke:none;font-family:Sans"
       id="text3049"
       transform="matrix(1.1382163,0.65714951,-0.65714951,1.1382163,154.39239,-8.2202145)">
      <g
         id="g3062"
         transform="matrix(0.70639667,-0.11219025,0.11219025,0.70639667,189.02998,-33.583511)">
        <path
           id="path3060"
           d="m -76.92325,343.2482 c 8.34955,13.46992 7.80268,27.43456 -1.64067,41.89394 -6.91173,11.2168 -17.87959,21.4817 -32.90355,30.79474 l -1.89583,-2.76906 c 8.64505,-8.22746 14.53772,-17.61732 17.67807,-28.16962 3.76024,-12.25129 2.77689,-22.99643 -2.95005,-32.23543 -2.89035,-4.66253 -6.9705,-7.87046 -12.2405,-9.6237 -4.76416,-1.70813 -9.96959,-2.00734 -15.6163,-0.89759 2.7786,17.40137 2.73916,33.92 -0.1183,49.55593 l 8.26487,5.81314 c 1.87326,3.02215 2.66474,5.93792 2.37446,8.74737 -0.33536,3.31548 -1.97085,5.88308 -4.90654,7.70286 -2.59041,1.60572 -6.5085,1.16591 -11.75427,-1.31944 -3.8775,8.97735 -8.96783,15.41962 -15.27099,19.32682 -4.66265,2.89029 -9.77921,3.31291 -15.3497,1.26787 -5.15091,-1.94655 -9.19824,-5.29432 -12.14204,-10.04331 -11.29344,-18.21877 -10.18832,-37.54941 3.31534,-57.99196 -2.84531,-5.1685 -5.74239,-10.90263 -8.69123,-17.20236 -2.10508,1.42454 -3.93476,2.61842 -5.48895,3.58182 -9.06621,5.62005 -19.94239,4.17463 -32.62853,-4.33626 l 1.23837,-2.91907 c 6.12144,1.5841 11.81565,0.74365 17.08267,-2.52137 3.54017,-2.19438 7.72969,-5.26945 12.56852,-9.22525 -3.20432,-7.09733 -5.26143,-11.37999 -6.17135,-12.84799 -2.67616,-4.31712 -6.58893,-6.19448 -11.73835,-5.63213 l -0.0205,-3.21446 c 5.24285,-2.53263 8.87791,-4.18832 10.90522,-4.96708 4.36728,-1.6313 8.34419,-2.54272 11.93077,-2.73423 4.54498,-0.18768 7.48652,0.79771 8.82459,2.95622 0.37467,0.60454 0.35296,2.11204 -0.0651,4.52249 -0.19189,2.39002 0.19034,5.32043 1.1467,8.79128 8.26691,-7.87339 12.89521,-13.13283 13.88492,-15.77833 0.22974,-0.97896 -0.44108,-1.57909 -2.01244,-1.80039 -0.0742,-0.31241 0.0199,-1.02818 0.28252,-2.14727 11.58031,-4.07066 18.86911,-3.6884 21.86645,1.14679 3.80014,6.13063 -5.12245,18.05603 -26.76778,35.77625 2.14953,4.0462 4.45962,8.35133 6.93029,12.9154 4.63686,-4.66706 9.56206,-8.67628 14.77562,-12.02764 l -0.24086,-0.38855 c -1.71278,-2.76294 -4.087,-4.27929 -7.12268,-4.54905 l -0.0697,-3.00464 c 9.48732,-3.01235 16.29693,-2.63185 20.42891,1.14147 10.6133,-4.66652 20.53135,-6.21288 29.75416,-4.63906 10.48148,1.86942 18.66604,7.55307 24.55372,17.05092 z"
           style="font-variant:normal;font-stretch:normal;font-family:DFGMincho-UB;-inkscape-font-specification:DFGMincho-UB"
           inkscape:connector-curvature="0" />
        <path
           id="path3058"
           d="m -141.29568,348.72865 c -4.17737,2.70913 -8.25129,6.54915 -12.22162,11.5202 1.62635,2.81667 3.21568,5.47692 4.76785,7.98088 2.78319,4.49001 5.86433,8.49647 9.24341,12.01939 0.45848,-10.44362 -0.13807,-20.95044 -1.78966,-31.52045 z"
           style="font-variant:normal;font-stretch:normal;fill:#ffffff;font-family:DFGMincho-UB;-inkscape-font-specification:DFGMincho-UB"
           inkscape:connector-curvature="0" />
        <path
           id="path3054"
           d="m -144.4709,403.76519 c -7.43677,-6.98381 -13.98154,-14.93892 -19.63431,-23.86533 -4.35263,12.26001 -4.12038,22.27551 0.69674,30.04652 3.10435,5.00805 6.94467,6.09367 11.52098,3.25691 2.76301,-1.71273 5.23522,-4.85876 7.41659,-9.4381 z"
           style="font-variant:normal;font-stretch:normal;fill:#ffffff;font-family:DFGMincho-UB;-inkscape-font-specification:DFGMincho-UB"
           inkscape:connector-curvature="0" />
      </g>
    </g>
  </g>
</svg>
